<?xml version="1.0" standalone="no"?><!DOCTYPE svg PUBLIC "-//W3C//DTD SVG 1.1//EN" "http://www.w3.org/Graphics/SVG/1.1/DTD/svg11.dtd"><svg t="1736994220152" class="icon" viewBox="0 0 1024 1024" version="1.1" xmlns="http://www.w3.org/2000/svg" p-id="2970" xmlns:xlink="http://www.w3.org/1999/xlink" width="200" height="200"><path d="M512 42.666667a106.666667 106.666667 0 0 1 64.042667 192L576 341.333333H810.666667a85.333333 85.333333 0 0 1 85.333333 85.333334v213.333333h42.666667a42.666667 42.666667 0 0 1 42.666666 42.666667v42.666666a42.666667 42.666667 0 0 1-42.666666 42.666667h-42.666667v128a85.333333 85.333333 0 0 1-85.333333 85.333333H213.333333a85.333333 85.333333 0 0 1-85.333333-85.333333v-128H85.333333a42.666667 42.666667 0 0 1-42.666666-42.666667v-42.666666a42.666667 42.666667 0 0 1 42.666666-42.666667h42.666667v-213.333333a85.333333 85.333333 0 0 1 85.333333-85.333334h234.666667V234.666667A106.666667 106.666667 0 0 1 512 42.666667z m298.666667 341.333333H213.333333a42.666667 42.666667 0 0 0-42.368 37.674667L170.666667 426.666667v469.333333a42.666667 42.666667 0 0 0 37.674666 42.368L213.333333 938.666667h597.333334a42.666667 42.666667 0 0 0 42.368-37.674667L853.333333 896V426.666667a42.666667 42.666667 0 0 0-37.674666-42.368L810.666667 384z m-192 341.333333a64 64 0 0 1 6.144 127.701334L618.666667 853.333333h-213.333334a64 64 0 0 1-6.144-127.701333L405.333333 725.333333h213.333334z m0 42.666667h-213.333334a21.333333 21.333333 0 0 0-3.84 42.325333L405.333333 810.666667h213.333334a21.333333 21.333333 0 1 0 0-42.666667z m320-85.333333h-42.666667v42.666666h42.666667v-42.666666zM128 682.666667H85.333333v42.666666h42.666667v-42.666666z m213.333333-213.333334a85.333333 85.333333 0 1 1 0 170.666667 85.333333 85.333333 0 0 1 0-170.666667z m341.333334 0a85.333333 85.333333 0 1 1 0 170.666667 85.333333 85.333333 0 0 1 0-170.666667z m-341.333334 42.666667a42.666667 42.666667 0 1 0 0 85.333333 42.666667 42.666667 0 0 0 0-85.333333z m341.333334 0a42.666667 42.666667 0 1 0 0 85.333333 42.666667 42.666667 0 0 0 0-85.333333z m-149.333334-256h-42.666666v85.333333h42.666666V256zM512 85.333333a64 64 0 1 0 0 128 64 64 0 0 0 0-128z" fill="#888888" p-id="2971"></path></svg>