<?xml version="1.0" standalone="no"?><!DOCTYPE svg PUBLIC "-//W3C//DTD SVG 1.1//EN" "http://www.w3.org/Graphics/SVG/1.1/DTD/svg11.dtd"><svg t="1736994264566" class="icon" viewBox="0 0 1024 1024" version="1.1" xmlns="http://www.w3.org/2000/svg" p-id="3117" xmlns:xlink="http://www.w3.org/1999/xlink" width="200" height="200"><path d="M778.666667 85.333333a85.333333 85.333333 0 0 1 85.333333 85.333334v533.333333a85.333333 85.333333 0 0 1-85.333333 85.333333h-533.333334a85.333333 85.333333 0 0 1-85.333333-85.333333V170.666667a85.333333 85.333333 0 0 1 85.333333-85.333334h533.333334z m0 64h-533.333334a21.333333 21.333333 0 0 0-21.333333 21.333334v533.333333a21.333333 21.333333 0 0 0 21.333333 21.333333h533.333334a21.333333 21.333333 0 0 0 21.333333-21.333333V170.666667a21.333333 21.333333 0 0 0-21.333333-21.333334zM618.666667 533.333333a32 32 0 0 1 0 64H405.333333a32 32 0 0 1 0-64h213.333334zM384 298.666667a53.333333 53.333333 0 1 1 0 106.666666 53.333333 53.333333 0 0 1 0-106.666666z m256 0a53.333333 53.333333 0 1 1 0 106.666666 53.333333 53.333333 0 0 1 0-106.666666zM192 874.666667h640a32 32 0 0 1 0 64H192a32 32 0 0 1 0-64z" fill="#323847" p-id="3118"></path></svg>